<svg width="49" height="49" viewBox="0 0 49 49" fill="none" xmlns="http://www.w3.org/2000/svg">
<path d="M32.1269 7.37765C32.4097 7.66077 32.7629 7.86332 33.15 7.96444C33.5372 8.06556 33.9443 8.06159 34.3294 7.95292C34.7146 7.84425 35.0637 7.63483 35.3409 7.34625C35.6182 7.05766 35.8134 6.70035 35.9065 6.31116C36.1401 5.33894 36.6285 4.44655 37.3216 3.72588C38.0147 3.00522 38.8873 2.48233 39.8496 2.21107C40.8119 1.93981 41.8291 1.92999 42.7965 2.18261C43.7639 2.43522 44.6464 2.94115 45.3533 3.64829C46.0601 4.35543 46.5657 5.23822 46.818 6.20575C47.0703 7.17328 47.0601 8.19057 46.7886 9.15287C46.517 10.1152 45.9939 10.9877 45.273 11.6805C44.5522 12.3734 43.6597 12.8616 42.6875 13.0949C42.2983 13.188 41.941 13.3833 41.6525 13.6605C41.3639 13.9377 41.1545 14.2869 41.0458 14.6721C40.9372 15.0572 40.9332 15.4644 41.0343 15.8516C41.1354 16.2388 41.338 16.592 41.6211 16.8748L45.4075 20.6593C45.9118 21.1636 46.3119 21.7624 46.5849 22.4214C46.8578 23.0804 46.9983 23.7867 46.9983 24.5C46.9983 25.2133 46.8578 25.9196 46.5849 26.5786C46.3119 27.2376 45.9118 27.8364 45.4075 28.3407L41.6211 32.1274C41.3383 32.4105 40.9851 32.6131 40.5979 32.7142C40.2107 32.8153 39.8036 32.8114 39.4185 32.7027C39.0334 32.594 38.6842 32.3846 38.407 32.096C38.1298 31.8074 37.9345 31.4501 37.8414 31.0609C37.6078 30.0887 37.1194 29.1963 36.4263 28.4757C35.7333 27.755 34.8606 27.2321 33.8983 26.9609C32.936 26.6896 31.9188 26.6798 30.9514 26.9324C29.9841 27.185 29.1015 27.6909 28.3946 28.3981C27.6878 29.1052 27.1822 29.988 26.9299 30.9555C26.6776 31.9231 26.6878 32.9404 26.9594 33.9026C27.2309 34.8649 27.7541 35.7375 28.4749 36.4303C29.1957 37.1232 30.0882 37.6114 31.0604 37.8446C31.4496 37.9378 31.8069 38.133 32.0955 38.4103C32.384 38.6875 32.5934 39.0367 32.7021 39.4219C32.8107 39.807 32.8147 40.2142 32.7136 40.6014C32.6125 40.9886 32.41 41.3418 32.1269 41.6246L28.3404 45.4091C27.8361 45.9135 27.2374 46.3136 26.5784 46.5865C25.9195 46.8595 25.2132 47 24.5 47C23.7868 47 23.0805 46.8595 22.4216 46.5865C21.7626 46.3136 21.1639 45.9135 20.6596 45.4091L16.8731 41.6224C16.5903 41.3392 16.2371 41.1367 15.85 41.0356C15.4628 40.9344 15.0557 40.9384 14.6706 41.0471C14.2854 41.1557 13.9363 41.3652 13.6591 41.6538C13.3818 41.9423 13.1866 42.2996 13.0935 42.6888C12.8599 43.6611 12.3715 44.5535 11.6784 45.2741C10.9853 45.9948 10.1127 46.5177 9.15041 46.7889C8.1881 47.0602 7.17088 47.07 6.20351 46.8174C5.23614 46.5648 4.35358 46.0588 3.64673 45.3517C2.93987 44.6446 2.43427 43.7618 2.182 42.7942C1.92972 41.8267 1.93988 40.8094 2.21144 39.8471C2.483 38.8848 3.00613 38.0123 3.72697 37.3195C4.44781 36.6266 5.3403 36.1384 6.31253 35.9052C6.70169 35.812 7.05897 35.6168 7.34753 35.3395C7.6361 35.0623 7.8455 34.7131 7.95416 34.3279C8.06282 33.9428 8.0668 33.5356 7.96569 33.1484C7.86457 32.7612 7.66203 32.408 7.37894 32.1252L3.59251 28.3407C3.08816 27.8364 2.68808 27.2376 2.41513 26.5786C2.14218 25.9196 2.00169 25.2133 2.00169 24.5C2.00169 23.7867 2.14218 23.0804 2.41513 22.4214C2.68808 21.7624 3.08816 21.1636 3.59251 20.6593L7.37894 16.8726C7.66174 16.5895 8.01494 16.3869 8.4021 16.2858C8.78927 16.1847 9.1964 16.1886 9.58151 16.2973C9.96663 16.406 10.3158 16.6154 10.593 16.904C10.8702 17.1926 11.0655 17.5499 11.1586 17.9391C11.3922 18.9113 11.8806 19.8037 12.5737 20.5243C13.2667 21.245 14.1394 21.7679 15.1017 22.0391C16.064 22.3104 17.0812 22.3202 18.0486 22.0676C19.0159 21.815 19.8985 21.3091 20.6054 20.6019C21.3122 19.8948 21.8178 19.012 22.0701 18.0445C22.3224 17.0769 22.3122 16.0596 22.0406 15.0974C21.7691 14.1351 21.2459 13.2625 20.5251 12.5697C19.8043 11.8768 18.9118 11.3886 17.9396 11.1554C17.5504 11.0622 17.1931 10.867 16.9045 10.5897C16.616 10.3125 16.4066 9.96329 16.2979 9.57814C16.1893 9.193 16.1853 8.78584 16.2864 8.39864C16.3875 8.01145 16.59 7.65823 16.8731 7.3754L20.6596 3.59094C21.1639 3.08655 21.7626 2.68645 22.4216 2.41347C23.0805 2.1405 23.7868 2 24.5 2C25.2132 2 25.9195 2.1405 26.5784 2.41347C27.2374 2.68645 27.8361 3.08655 28.3404 3.59094L32.1269 7.37765Z" stroke="#E9630D" stroke-width="4" stroke-linecap="round" stroke-linejoin="round"/>
</svg>
